<svg width="24" height="24" viewBox="0 0 24 24" fill="none"
  xmlns="http://www.w3.org/2000/svg">
  <path d="M10.5686 1.59343L1.53892 10.6214C0.484041 11.5521 0.918442 14.1271 3.36967 14.003V20.7042C3.3697 21.4695 3.84142 23 5.72803 23H9.32749C9.50332 23 9.85499 22.8821 9.85499 22.4105V17.1365C9.85499 16.7848 10.066 16.0816 10.91 16.0816H13.0821C13.4234 16.092 14.1061 16.3174 14.1061 17.1365V22.4105C14.1061 22.607 14.2364 23 14.7577 23H18.3572C19.1226 23 20.6534 22.5408 20.6534 20.7042V14.003C22.5462 14.1581 23.7874 12.1416 22.4219 10.5904L13.4233 1.59343C12.6476 0.786767 11.2823 0.817765 10.5686 1.59343Z" stroke="#C4C4C4" stroke-width="2" stroke-linecap="round"/>
</svg>